
<svg version="1.0" xmlns="http://www.w3.org/2000/svg"
 width="300.000000pt" height="300.000000pt" viewBox="0 0 300.000000 300.000000"
 preserveAspectRatio="xMidYMid meet">

<g transform="translate(0.000000,300.000000) scale(0.100000,-0.100000)"
fill="#fff" stroke="none">
<path d="M1514 2712 c-39 -25 -56 -66 -52 -127 3 -46 5 -50 45 -71 24 -12 48
-24 54 -26 8 -3 8 -15 1 -43 -6 -22 -16 -81 -23 -130 l-11 -91 -42 1 c-36 0
-46 6 -83 46 l-43 46 17 42 c14 35 15 48 5 74 -13 35 -16 31 54 84 16 12 24
22 18 22 -6 1 -28 -14 -50 -33 l-39 -34 -22 20 c-26 25 -90 33 -122 16 -38
-20 -64 -64 -67 -109 -1 -29 -10 -49 -30 -71 -23 -24 -215 -191 -315 -275 -13
-11 -22 -9 -54 7 -50 25 -78 25 -132 -1 -58 -28 -88 -83 -80 -150 6 -46 5 -47
-56 -113 l-62 -66 -41 12 c-56 15 -110 -5 -142 -52 -20 -29 -23 -44 -20 -88 6
-65 42 -108 105 -124 39 -9 44 -14 54 -52 41 -154 90 -332 94 -346 3 -9 -4
-19 -17 -25 -39 -18 -63 -62 -63 -117 0 -45 4 -53 37 -84 45 -41 108 -49 153
-19 18 11 25 9 60 -19 74 -60 219 -169 249 -187 28 -17 30 -22 27 -69 -2 -46
1 -54 32 -85 29 -29 42 -35 79 -35 41 0 108 30 108 48 0 5 39 -4 88 -19 48
-15 141 -44 207 -64 66 -20 126 -38 133 -40 6 -3 12 -18 12 -36 0 -22 10 -41
34 -65 29 -29 41 -34 80 -34 36 0 52 6 80 30 19 17 36 43 38 57 2 21 14 30 69
52 36 14 77 33 90 42 23 16 26 15 52 -7 21 -18 40 -24 75 -24 122 0 181 123
102 213 l-29 33 34 85 34 84 43 5 c24 3 53 12 66 19 32 17 62 70 62 109 0 43
-27 100 -54 114 -11 6 -22 12 -24 13 -1 1 6 22 16 46 10 24 38 101 62 171 42
124 44 126 76 133 43 8 91 56 99 99 19 98 -93 179 -183 132 -27 -14 -29 -13
-104 54 -67 60 -75 70 -61 81 11 10 14 26 11 66 -5 58 -29 93 -79 113 -34 14
-33 13 -58 165 -36 224 -37 218 1 235 41 19 78 73 78 114 -1 42 -29 95 -63
120 -21 15 -43 21 -84 21 -50 0 -57 -3 -85 -34 l-30 -34 -102 32 c-56 17 -109
31 -117 31 -9 0 -19 17 -27 44 -19 73 -105 107 -168 68z m119 -41 c10 -9 20
-34 24 -54 5 -32 2 -40 -27 -67 -38 -35 -63 -37 -107 -10 -28 17 -33 26 -33
58 0 85 86 129 143 73z m183 -122 l101 -31 -4 -42 c-3 -29 2 -50 16 -74 23
-35 75 -72 104 -72 23 0 23 1 50 -180 13 -85 26 -161 28 -169 3 -10 -8 -17
-31 -22 -21 -4 -47 -21 -65 -42 l-30 -34 -185 87 c-178 83 -185 88 -182 114 4
40 -16 93 -44 115 -29 23 -29 24 -2 177 17 96 25 124 37 124 21 1 43 19 65 53
10 15 23 27 29 27 6 0 57 -14 113 -31z m283 16 c28 -14 61 -68 61 -100 0 -52
-76 -119 -122 -108 -32 8 -68 38 -84 69 -49 93 51 188 145 139z m-773 -100
c53 -34 30 -128 -36 -150 -58 -20 -99 14 -100 80 0 83 63 115 136 70z m-156
-130 c0 -17 -345 -315 -363 -315 -7 0 2 12 18 26 175 151 293 256 309 273 18
20 36 28 36 16z m55 -55 c19 4 22 -15 12 -102 -9 -91 -12 -98 -32 -98 l-22 0
14 81 c8 45 12 89 10 98 -2 9 -9 -18 -16 -59 -19 -117 -19 -119 -52 -135 -31
-17 -49 -49 -49 -91 0 -27 -3 -27 -172 -28 l-86 -1 -7 30 c-4 24 -1 34 17 48
34 27 267 227 308 264 35 32 35 32 52 12 9 -11 20 -19 23 -19z m167 -19 l36
-49 -29 -28 c-23 -22 -29 -36 -29 -71 0 -39 -3 -44 -32 -58 -32 -15 -26 -15
20 -1 41 13 22 -10 -23 -26 -42 -16 -44 -16 -50 2 -3 11 -12 19 -18 17 -13 -2
-13 49 -1 169 5 60 7 62 42 77 20 8 39 15 42 15 3 1 22 -21 42 -47z m146 -77
c32 -22 54 -69 46 -99 -15 -61 -105 -86 -158 -44 -20 15 -26 29 -26 58 0 78
78 127 138 85z m-284 -150 c25 -24 27 -31 22 -68 -9 -56 -40 -86 -87 -86 -30
0 -43 7 -64 32 -73 86 46 198 129 122z m-495 -13 c11 -7 28 -28 36 -48 18 -43
8 -88 -29 -122 -26 -24 -85 -38 -113 -26 -10 5 -22 9 -27 9 -21 2 -50 58 -50
96 1 95 91 140 183 91z m951 -33 c41 -19 119 -57 173 -83 89 -45 97 -51 97
-78 0 -43 29 -97 59 -110 14 -6 28 -12 29 -13 2 -2 -27 -77 -64 -168 -65 -160
-68 -166 -96 -166 -73 0 -113 -55 -106 -145 l3 -44 -120 -99 c-119 -98 -120
-99 -143 -82 -12 10 -44 23 -71 30 -46 11 -52 10 -90 -14 -22 -14 -45 -35 -51
-46 -10 -19 -11 -19 -29 -1 -21 21 -290 166 -309 166 -10 0 -14 18 -15 64 l-1
63 135 78 c102 59 136 75 144 66 15 -19 51 -36 74 -36 20 0 34 -47 75 -249 7
-36 18 -67 24 -69 17 -5 15 9 -13 132 -40 178 -40 186 -7 222 l29 31 114 -29
c63 -15 134 -30 158 -32 27 -2 48 -10 53 -20 5 -9 19 -16 31 -16 22 1 22 1 2
12 -11 6 -24 17 -30 25 -5 7 -80 30 -165 51 l-155 38 -5 35 c-4 19 -10 40 -14
47 -13 22 -67 43 -98 40 -36 -3 -41 7 -84 172 l-25 95 35 28 c30 24 36 36 36
66 0 35 3 39 51 60 47 22 51 22 68 7 34 -31 85 -38 130 -20 23 9 46 25 52 36
9 17 12 18 27 5 9 -8 51 -30 92 -49z m462 -73 c40 -27 56 -72 44 -120 -12 -49
-111 -87 -153 -59 -52 33 -66 113 -28 157 45 51 85 58 137 22z m-1282 -1 c-65
-16 -26 -13 102 7 l88 13 34 -37 c22 -24 43 -37 59 -37 22 0 28 -7 36 -37 6
-21 11 -44 11 -52 0 -7 14 -53 30 -102 l31 -89 -23 -31 c-16 -22 -23 -43 -22
-74 1 -37 -3 -45 -25 -55 -14 -6 -77 -41 -138 -77 l-113 -65 -25 20 c-14 12
-39 23 -54 27 -25 5 -29 11 -34 57 -4 28 -23 137 -43 241 -37 190 -37 190 -17
206 25 20 43 53 43 80 0 19 6 21 58 20 l57 -1 -55 -14z m-320 -78 c0 -7 -7
-20 -17 -27 -9 -8 -33 -35 -53 -61 -26 -32 -41 -44 -50 -38 -10 6 1 25 46 74
61 67 74 76 74 52z m45 -32 c17 -11 41 -15 79 -12 l55 3 11 -65 c5 -36 17
-128 25 -205 9 -77 18 -152 21 -166 4 -21 -4 -34 -37 -68 l-42 -42 6 -67 5
-67 -59 -43 -60 -43 -26 21 c-14 11 -41 20 -59 20 -19 0 -34 2 -34 4 0 8 -98
370 -105 388 -5 12 2 21 25 33 59 30 86 109 59 169 -11 22 -7 30 46 90 32 36
60 66 62 66 2 0 15 -7 28 -16z m1673 -136 c53 -45 71 -66 66 -78 -4 -8 -9 -35
-12 -60 -4 -50 21 -94 63 -110 l23 -9 -43 -133 c-72 -222 -68 -213 -104 -210
-18 2 -48 -5 -70 -16 l-38 -20 -73 75 c-74 74 -74 74 -64 112 14 51 0 95 -40
127 l-33 27 34 81 c19 44 46 113 60 153 21 60 31 74 58 87 18 9 42 16 53 16
12 0 24 5 27 10 10 17 19 12 93 -52z m-1863 17 c23 -22 30 -49 26 -100 -3 -32
-57 -75 -93 -75 -40 0 -94 41 -103 78 -7 35 8 79 37 104 32 28 103 24 133 -7z
m2084 -79 c50 -26 62 -94 23 -139 -8 -9 -33 -23 -55 -29 -39 -12 -40 -11 -74
26 -32 34 -35 43 -30 80 9 68 69 96 136 62z m-1689 -152 c23 -140 23 -134 11
-134 -4 0 -14 42 -20 93 -28 214 -24 234 9 41z m573 96 c33 -26 41 -62 23
-104 -29 -69 -90 -82 -142 -31 -38 38 -27 114 20 147 21 14 73 8 99 -12z m595
-236 c28 -32 29 -83 0 -119 -19 -25 -26 -27 -71 -22 -37 3 -56 11 -69 27 -37
45 -14 118 42 137 43 15 69 9 98 -23z m-1077 -37 c41 -26 52 -104 19 -137 -31
-31 -63 -40 -103 -29 -52 14 -71 40 -64 91 8 59 55 102 100 92 17 -3 39 -11
48 -17z m943 -122 c26 -19 114 -20 135 -1 14 13 25 5 96 -63 76 -73 79 -78 68
-101 -25 -50 -5 -133 40 -165 l21 -14 -30 -89 -29 -88 -56 4 c-53 4 -58 2 -92
-32 -21 -20 -39 -31 -42 -25 -12 18 -86 60 -96 54 -5 -4 -8 -1 -7 7 2 7 -5 12
-15 12 -10 -1 -16 0 -13 3 9 9 -125 84 -137 76 -6 -4 -7 -1 -2 7 6 10 4 12 -9
7 -9 -4 -15 -3 -11 2 6 11 -84 63 -96 55 -12 -7 -11 -2 7 35 14 29 14 55 -2
112 -3 10 31 44 104 102 60 47 114 93 122 101 15 19 20 19 44 1z m-739 -110
c198 -105 198 -104 191 -137 -3 -16 1 -48 9 -71 8 -23 11 -44 6 -47 -42 -28
-130 -104 -126 -108 7 -7 -26 -42 -39 -42 -6 0 0 9 14 20 14 11 21 20 15 19
-18 0 -47 -27 -40 -38 3 -6 1 -11 -4 -11 -6 0 -11 4 -11 8 0 15 -58 42 -90 42
-35 0 -86 -23 -92 -42 -6 -16 -22 -5 -193 120 -71 53 -131 97 -133 98 -2 1 4
14 14 28 13 20 15 39 11 79 l-6 52 60 43 c61 43 61 43 94 28 55 -27 119 -15
154 28 12 15 17 14 45 -3 17 -10 72 -40 121 -66z m-574 -9 c43 -18 65 -42 73
-83 6 -26 2 -37 -22 -64 -25 -28 -37 -34 -72 -34 -86 0 -119 91 -59 160 35 40
35 40 80 21z m1807 -34 c31 -37 37 -66 21 -103 -26 -63 -116 -90 -157 -46 -47
50 -51 116 -9 155 44 40 109 38 145 -6z m-835 -21 c55 -21 66 -122 18 -171
-37 -39 -81 -45 -132 -19 -47 24 -59 45 -59 104 0 37 5 51 28 72 47 44 65 45
145 14z m86 -205 c18 -16 327 -199 353 -208 12 -5 17 -18 16 -46 0 -21 3 -48
6 -59 5 -17 -5 -25 -74 -57 -78 -37 -100 -39 -100 -10 0 41 -97 87 -139 65
-14 -8 -18 -7 -17 2 2 19 -118 276 -126 271 -5 -3 -8 1 -9 8 0 7 -2 8 -5 2 -2
-6 25 -75 60 -153 l65 -143 -27 -34 c-15 -20 -33 -32 -42 -29 -21 6 -383 115
-396 120 -6 2 -10 26 -9 58 2 54 3 56 66 112 35 32 78 68 96 82 l31 24 34 -21
c43 -26 82 -25 138 4 56 29 60 29 79 12z m-497 -153 c25 -22 24 -93 -1 -122
-11 -12 -34 -24 -53 -27 -89 -15 -131 116 -51 160 32 18 78 14 105 -11z m1047
-26 c38 -19 62 -72 49 -110 -39 -116 -197 -92 -198 30 0 34 5 46 31 67 34 29
79 34 118 13z m-408 -180 c55 -42 56 -94 3 -136 -82 -65 -180 44 -109 122 28
29 77 36 106 14z"/>
<path d="M1340 2295 c0 -13 52 -86 58 -81 2 3 -10 24 -27 48 -17 23 -31 38
-31 33z"/>
<path d="M1420 2490 c-25 -22 -40 -39 -35 -39 14 0 91 67 84 73 -2 3 -25 -12
-49 -34z"/>
</g>
</svg>
