<svg version="1.1" id="Layer_1" xmlns="http://www.w3.org/2000/svg" xmlns:xlink="http://www.w3.org/1999/xlink" x="0px" y="0px"
	 width="100%" viewBox="0 0 976 976" enable-background="new 0 0 976 976" xml:space="preserve">
<path fill="gray" opacity="1.000000" stroke="none"  
	d="
M640.411377,565.589111 
	C681.352600,602.470581 705.692566,647.956726 714.065918,701.984741 
	C715.517334,711.349609 716.236755,720.825867 716.328552,730.336243 
	C716.361084,733.703369 715.197449,735.296204 711.708313,735.151123 
	C708.547729,735.019653 705.376404,735.154968 702.209839,735.155334 
	C559.211609,735.173584 416.213318,735.190308 273.215057,735.205444 
	C265.596924,735.206238 265.396912,735.190308 265.740204,727.386108 
	C268.549316,663.523621 293.051483,609.665283 340.513153,566.610718 
	C372.839355,537.286316 410.804993,518.978821 453.783203,512.178223 
	C517.240540,502.137146 575.157410,516.377991 626.953308,554.651123 
	C631.503113,558.013062 635.753357,561.780579 640.411377,565.589111 
z"/>
<path fill="gray" opacity="1.000000" stroke="none" 
	d="
M418.933441,439.097565 
	C391.471039,413.925659 379.040924,382.950348 381.898071,346.245422 
	C385.904327,294.778229 428.027069,252.461212 479.426392,247.593002 
	C537.771057,242.066971 588.801208,280.528625 598.978577,337.699951 
	C609.485901,396.725311 569.756348,453.713409 510.517578,464.212646 
	C476.260162,470.284271 445.862915,461.495331 418.933441,439.097565 
z"/>
</svg>